<svg xmlns:xlink="http://www.w3.org/1999/xlink" xmlns="http://www.w3.org/2000/svg" id="Layer_1" data-name="Layer 1" viewBox="0 0 805.95 783.65" width="805.95"  height="783.65" >
            <defs>
              <style>
                .cls-1 {
                  fill: aqua;
                }
              </style>
            </defs>
            <path class="cls-1" d="M555.91,108.35s.91,3.29,2.45,9.43c.77,3.07,1.66,6.84,2.64,11.27.48,2.21,1,4.59,1.43,7.11s1,5.21,1.44,8c5.19,30.49,4.58,60.94.79,91.22-6.23,42.63-21.23,83.07-39.1,122.46-10.78,22.68-22.4,44.95-34.49,67.07-12.74,23-25.83,45.8-38.7,68.74-12.68,22.81-25,45.74-36.44,69.1-10.48,22.35-15.21,34.44-23.06,57.7C380.22,662,369.57,713.86,374,757.42c4.84,33.37,5,52.58,21.39,83.34,3.22,6,6.38,11.43,9.29,16.17,1.45,2.37,2.82,4.57,4.11,6.58s2.53,3.87,3.63,5.52c4.42,6.6,5.36,7.63,7.12,10.18.47.68,9.81,12.79,9.81,12.79s-.89-3.28-2.4-9.42c-.38-1.53-.79-3.24-1.21-5.12s-.91-3.93-1.37-6.14c-.92-4.42-1.89-9.48-2.81-15.13-4.9-30.58-4.4-60.84-.55-91.18,6-42.59,21.3-83.13,39.06-122.47,10.73-22.69,22.32-45,34.38-67.08,12.66-23,25.63-45.85,38.44-68.78,12.62-22.82,24.8-45.79,36.18-69.15a645.44,645.44,0,0,0,27.59-68.18c12.57-41.55,18.57-82.94,14.23-126.48-4.77-33.22-14.49-65.51-31-96.09q-2.42-4.51-4.72-8.56c-1.56-2.7-3.07-5.24-4.5-7.61-2.85-4.73-5.5-8.79-7.69-12.08" transform="translate(-92.38 -108.35)" stroke="#00FFFF" fill="#00FFFF"></path>
            <path class="cls-1" d="M429.05,207.52s.43,2,1.13,5.67c.35,1.84.74,4.1,1.17,6.76q.31,2,.6,4.26c.21,1.51.4,3.12.58,4.8,2,18.24.6,36.24-2.7,54-5.17,25-15.45,48.45-27.4,71.16-7.16,13.05-14.81,25.83-22.74,38.51-8.34,13.16-16.88,26.22-25.29,39.35s-16.38,26.22-24,39.65a275.09,275.09,0,0,0-15.65,33.37c-8.93,24.16-17,54.47-15.94,80.41,1.7,19.93,1.16,31.31,9.77,50.08,1.7,3.68,3.38,7,4.94,9.9q1.17,2.17,2.21,4c.7,1.25,1.36,2.38,2,3.39,2.38,4.07,2.9,4.7,3.86,6.28.25.42,5.36,7.91,5.36,7.91s-.41-2-1.09-5.66c-.18-.92-.36-1.95-.54-3.07s-.4-2.36-.6-3.69c-.39-2.64-.79-5.68-1.14-9-1.84-18.27-.5-36.18,2.84-54,5.06-25,15.49-48.48,27.37-71.16,7.14-13.06,14.77-25.84,22.68-38.52,8.29-13.18,16.76-26.26,25.14-39.39s16.27-26.25,23.82-39.69a385.12,385.12,0,0,0,18.7-39.4C453,339.29,458,315,456.92,289.06a170,170,0,0,0-15-58c-.85-1.84-1.69-3.58-2.5-5.23s-1.63-3.21-2.4-4.66c-1.52-2.9-2.95-5.39-4.13-7.42" transform="translate(-92.38 -108.35)" stroke="#00FFFF" fill="#00FFFF"></path>
            <path class="cls-1" d="M667.71,335.82s.33,2,.87,5.71c.26,1.86.55,4.14.86,6.81.14,1.34.28,2.77.4,4.28s.26,3.14.36,4.83c1.18,18.31-1.05,36.23-5.15,53.85-6.3,24.77-17.64,47.7-30.6,69.84-7.76,12.71-16,25.13-24.47,37.43-8.93,12.78-18.06,25.43-27.06,38.17s-17.56,25.45-25.75,38.52A273.22,273.22,0,0,0,540,627.87c-10,23.74-19.49,53.65-19.58,79.61.8,20-.27,31.33,7.49,50.48,1.52,3.74,3.05,7.14,4.48,10.11q1.07,2.23,2,4.14c.65,1.27,1.25,2.43,1.8,3.47,2.2,4.17,2.69,4.83,3.57,6.45.24.43,5,8.15,5,8.15s-.32-2-.84-5.71q-.19-1.4-.39-3.09c-.15-1.14-.3-2.38-.43-3.71-.28-2.66-.53-5.71-.73-9.1-1-18.33,1.15-36.16,5.29-53.81,6.19-24.75,17.68-47.73,30.58-69.84,7.72-12.73,15.93-25.15,24.4-37.46,8.89-12.78,17.94-25.46,26.91-38.2s17.45-25.48,25.6-38.56a386.06,386.06,0,0,0,20.47-38.52c10-23.74,16.06-47.78,16.18-73.73A170.13,170.13,0,0,0,679.49,360c-.77-1.87-1.53-3.65-2.26-5.34s-1.49-3.28-2.19-4.76c-1.39-3-2.7-5.52-3.79-7.6" transform="translate(-92.38 -108.35)" stroke="#00FFFF" fill="#00FFFF"></path>
            <path class="cls-1" d="M234.81,406.36v41.37a6.32,6.32,0,0,1-3.41,5.61L141.68,500l89.72,46.63a6.33,6.33,0,0,1,3.41,5.61v41.21l-139-72.25a6.34,6.34,0,0,1-3.41-5.62V484.23a6.32,6.32,0,0,1,3.41-5.61Z" transform="translate(-92.38 -108.35)" stroke="#00FFFF" fill="#00FFFF"></path>
            <path class="cls-1" d="M894.92,478.62a6.32,6.32,0,0,1,3.41,5.61v31.33a6.34,6.34,0,0,1-3.41,5.62l-139,72.25V552.22a6.31,6.31,0,0,1,3.41-5.61L849,500l-89.72-46.64a6.3,6.3,0,0,1-3.41-5.61V406.36Z" transform="translate(-92.38 -108.35)" stroke="#00FFFF" fill="#00FFFF"></path>
          </svg>